<svg width="124" height="36" viewBox="0 0 124 36" fill="none" xmlns="http://www.w3.org/2000/svg">
<path fill-rule="evenodd" clip-rule="evenodd" d="M24 0H0V24H5.0718L1.6077 30H13.6054C15.6802 33.5868 19.5583 36 24 36C30.6274 36 36 30.6274 36 24C36 17.3726 30.6274 12 24 12V0ZM18.9282 24L22.3923 30H13.6054C12.5844 28.235 12 26.1857 12 24H18.9282ZM14.6123 16.5246C16.811 13.7671 20.1991 12 24 12V24H18.9282L14.6123 16.5246ZM14.6123 16.5246C12.9772 18.5752 12 21.1735 12 24H5.0718L12 12L14.6123 16.5246Z" fill="currentColor"/>
<path d="M49.185 16V5.635H50.535V6.76H50.76C50.95 6.41 51.245 6.1 51.645 5.83C52.055 5.56 52.63 5.425 53.37 5.425C53.99 5.425 54.56 5.575 55.08 5.875C55.6 6.175 56.015 6.61 56.325 7.18C56.645 7.74 56.805 8.42 56.805 9.22V9.43C56.805 10.21 56.65 10.885 56.34 11.455C56.03 12.025 55.615 12.46 55.095 12.76C54.575 13.06 54 13.21 53.37 13.21C52.88 13.21 52.46 13.145 52.11 13.015C51.77 12.895 51.495 12.735 51.285 12.535C51.075 12.335 50.91 12.135 50.79 11.935H50.565V16H49.185ZM52.98 11.995C53.69 11.995 54.27 11.77 54.72 11.32C55.18 10.86 55.41 10.215 55.41 9.385V9.25C55.41 8.42 55.18 7.78 54.72 7.33C54.27 6.87 53.69 6.64 52.98 6.64C52.28 6.64 51.7 6.87 51.24 7.33C50.78 7.78 50.55 8.42 50.55 9.25V9.385C50.55 10.215 50.78 10.86 51.24 11.32C51.7 11.77 52.28 11.995 52.98 11.995Z" fill="currentColor"/>
<path d="M60.789 13.21C60.269 13.21 59.799 13.12 59.379 12.94C58.959 12.76 58.629 12.5 58.389 12.16C58.149 11.81 58.029 11.385 58.029 10.885C58.029 10.385 58.149 9.97 58.389 9.64C58.629 9.31 58.959 9.06 59.379 8.89C59.809 8.72 60.289 8.635 60.819 8.635H63.174V8.14C63.174 7.66 63.034 7.28 62.754 7C62.474 6.72 62.049 6.58 61.479 6.58C60.919 6.58 60.484 6.715 60.174 6.985C59.874 7.255 59.674 7.61 59.574 8.05L58.284 7.63C58.404 7.22 58.594 6.85 58.854 6.52C59.124 6.19 59.474 5.925 59.904 5.725C60.344 5.525 60.874 5.425 61.494 5.425C62.444 5.425 63.184 5.67 63.714 6.16C64.254 6.64 64.524 7.33 64.524 8.23V11.395C64.524 11.695 64.664 11.845 64.944 11.845H65.604V13H64.494C64.154 13 63.879 12.91 63.669 12.73C63.459 12.54 63.354 12.29 63.354 11.98V11.92H63.144C63.054 12.1 62.924 12.29 62.754 12.49C62.584 12.69 62.339 12.86 62.019 13C61.709 13.14 61.299 13.21 60.789 13.21ZM60.969 12.055C61.629 12.055 62.159 11.865 62.559 11.485C62.969 11.095 63.174 10.565 63.174 9.895V9.73H60.879C60.449 9.73 60.094 9.825 59.814 10.015C59.544 10.195 59.409 10.475 59.409 10.855C59.409 11.225 59.549 11.52 59.829 11.74C60.119 11.95 60.499 12.055 60.969 12.055Z" fill="currentColor"/>
<path d="M67.5312 16V14.785H71.6862C71.9762 14.785 72.1212 14.635 72.1212 14.335V11.875H71.8962C71.7962 12.085 71.6512 12.285 71.4612 12.475C71.2712 12.665 71.0162 12.825 70.6962 12.955C70.3762 13.075 69.9712 13.135 69.4812 13.135C68.9312 13.135 68.4362 13.015 67.9962 12.775C67.5562 12.535 67.2112 12.19 66.9612 11.74C66.7112 11.28 66.5862 10.73 66.5862 10.09V5.635H67.9662V9.985C67.9662 10.665 68.1362 11.165 68.4762 11.485C68.8162 11.795 69.2812 11.95 69.8712 11.95C70.5412 11.95 71.0812 11.73 71.4912 11.29C71.9012 10.85 72.1062 10.205 72.1062 9.355V5.635H73.4862V14.605C73.4862 15.035 73.3612 15.375 73.1112 15.625C72.8712 15.875 72.5312 16 72.0912 16H67.5312Z" fill="currentColor"/>
<path d="M75.5604 13V2.5H76.9404V13H75.5604Z" fill="currentColor"/>
<path d="M82.46 13.21C81.72 13.21 81.065 13.055 80.495 12.745C79.925 12.435 79.475 12 79.145 11.44C78.825 10.87 78.665 10.2 78.665 9.43V9.22C78.665 8.44 78.825 7.77 79.145 7.21C79.475 6.64 79.925 6.2 80.495 5.89C81.065 5.58 81.72 5.425 82.46 5.425C83.2 5.425 83.855 5.58 84.425 5.89C84.995 6.2 85.44 6.64 85.76 7.21C86.09 7.77 86.255 8.44 86.255 9.22V9.43C86.255 10.2 86.09 10.87 85.76 11.44C85.44 12 84.995 12.435 84.425 12.745C83.855 13.055 83.2 13.21 82.46 13.21ZM82.46 11.98C83.18 11.98 83.76 11.75 84.2 11.29C84.65 10.82 84.875 10.185 84.875 9.385V9.25C84.875 8.45 84.655 7.82 84.215 7.36C83.775 6.89 83.19 6.655 82.46 6.655C81.74 6.655 81.155 6.89 80.705 7.36C80.265 7.82 80.045 8.45 80.045 9.25V9.385C80.045 10.185 80.265 10.82 80.705 11.29C81.155 11.75 81.74 11.98 82.46 11.98Z" fill="currentColor"/>
<path d="M90.2482 13.21C89.7282 13.21 89.2582 13.12 88.8382 12.94C88.4182 12.76 88.0882 12.5 87.8482 12.16C87.6082 11.81 87.4882 11.385 87.4882 10.885C87.4882 10.385 87.6082 9.97 87.8482 9.64C88.0882 9.31 88.4182 9.06 88.8382 8.89C89.2682 8.72 89.7482 8.635 90.2782 8.635H92.6332V8.14C92.6332 7.66 92.4932 7.28 92.2132 7C91.9332 6.72 91.5082 6.58 90.9382 6.58C90.3782 6.58 89.9432 6.715 89.6332 6.985C89.3332 7.255 89.1332 7.61 89.0332 8.05L87.7432 7.63C87.8632 7.22 88.0532 6.85 88.3132 6.52C88.5832 6.19 88.9332 5.925 89.3632 5.725C89.8032 5.525 90.3332 5.425 90.9532 5.425C91.9032 5.425 92.6432 5.67 93.1732 6.16C93.7132 6.64 93.9832 7.33 93.9832 8.23V11.395C93.9832 11.695 94.1232 11.845 94.4032 11.845H95.0632V13H93.9532C93.6132 13 93.3382 12.91 93.1282 12.73C92.9182 12.54 92.8132 12.29 92.8132 11.98V11.92H92.6032C92.5132 12.1 92.3832 12.29 92.2132 12.49C92.0432 12.69 91.7982 12.86 91.4782 13C91.1682 13.14 90.7582 13.21 90.2482 13.21ZM90.4282 12.055C91.0882 12.055 91.6182 11.865 92.0182 11.485C92.4282 11.095 92.6332 10.565 92.6332 9.895V9.73H90.3382C89.9082 9.73 89.5532 9.825 89.2732 10.015C89.0032 10.195 88.8682 10.475 88.8682 10.855C88.8682 11.225 89.0082 11.52 89.2882 11.74C89.5782 11.95 89.9582 12.055 90.4282 12.055Z" fill="currentColor"/>
<path d="M99.1954 13.21C98.5754 13.21 98.0054 13.06 97.4854 12.76C96.9654 12.46 96.5453 12.025 96.2253 11.455C95.9153 10.885 95.7604 10.21 95.7604 9.43V9.22C95.7604 8.43 95.9153 7.75 96.2253 7.18C96.5353 6.61 96.9504 6.175 97.4704 5.875C98.0004 5.575 98.5754 5.425 99.1954 5.425C99.6954 5.425 100.115 5.49 100.455 5.62C100.795 5.74 101.07 5.9 101.28 6.1C101.49 6.29 101.655 6.495 101.775 6.715H102V2.5H103.38V13H102.03V11.875H101.805C101.615 12.215 101.32 12.525 100.92 12.805C100.52 13.075 99.9454 13.21 99.1954 13.21ZM99.5854 11.995C100.295 11.995 100.875 11.77 101.325 11.32C101.785 10.86 102.015 10.215 102.015 9.385V9.25C102.015 8.42 101.785 7.78 101.325 7.33C100.875 6.87 100.295 6.64 99.5854 6.64C98.8854 6.64 98.3054 6.87 97.8454 7.33C97.3854 7.78 97.1553 8.42 97.1553 9.25V9.385C97.1553 10.215 97.3854 10.86 97.8454 11.32C98.3054 11.77 98.8854 11.995 99.5854 11.995Z" fill="currentColor"/>
<path d="M52.185 28.21C51.255 28.21 50.48 28 49.86 27.58C49.24 27.16 48.86 26.51 48.72 25.63L50.025 25.33C50.095 25.77 50.235 26.12 50.445 26.38C50.655 26.63 50.91 26.81 51.21 26.92C51.51 27.03 51.835 27.085 52.185 27.085C52.705 27.085 53.11 26.985 53.4 26.785C53.69 26.575 53.835 26.305 53.835 25.975C53.835 25.635 53.695 25.395 53.415 25.255C53.145 25.105 52.755 24.985 52.245 24.895L51.69 24.79C51.2 24.7 50.755 24.57 50.355 24.4C49.955 24.23 49.635 24 49.395 23.71C49.165 23.41 49.05 23.035 49.05 22.585C49.05 21.905 49.305 21.375 49.815 20.995C50.335 20.615 51.02 20.425 51.87 20.425C52.7 20.425 53.375 20.615 53.895 20.995C54.425 21.365 54.765 21.875 54.915 22.525L53.64 22.885C53.55 22.405 53.345 22.065 53.025 21.865C52.715 21.655 52.33 21.55 51.87 21.55C51.41 21.55 51.05 21.635 50.79 21.805C50.53 21.975 50.4 22.22 50.4 22.54C50.4 22.86 50.525 23.095 50.775 23.245C51.025 23.395 51.365 23.51 51.795 23.59L52.365 23.695C52.895 23.775 53.37 23.895 53.79 24.055C54.22 24.215 54.56 24.445 54.81 24.745C55.06 25.035 55.185 25.425 55.185 25.915C55.185 26.645 54.91 27.21 54.36 27.61C53.82 28.01 53.095 28.21 52.185 28.21Z" fill="currentColor"/>
<path d="M57.6505 31V29.785H61.8055C62.0955 29.785 62.2405 29.635 62.2405 29.335V26.875H62.0155C61.9155 27.085 61.7705 27.285 61.5805 27.475C61.3905 27.665 61.1355 27.825 60.8155 27.955C60.4955 28.075 60.0905 28.135 59.6005 28.135C59.0505 28.135 58.5555 28.015 58.1155 27.775C57.6755 27.535 57.3305 27.19 57.0805 26.74C56.8305 26.28 56.7055 25.73 56.7055 25.09V20.635H58.0855V24.985C58.0855 25.665 58.2555 26.165 58.5955 26.485C58.9355 26.795 59.4005 26.95 59.9905 26.95C60.6605 26.95 61.2005 26.73 61.6105 26.29C62.0205 25.85 62.2255 25.205 62.2255 24.355V20.635H63.6055V29.605C63.6055 30.035 63.4805 30.375 63.2305 30.625C62.9905 30.875 62.6505 31 62.2105 31H57.6505Z" fill="currentColor"/>
<path d="M65.6797 28V20.635H67.0297V21.805H67.2547C67.4047 21.475 67.6647 21.175 68.0347 20.905C68.4147 20.635 68.9647 20.5 69.6847 20.5C70.2447 20.5 70.7397 20.62 71.1697 20.86C71.6097 21.1 71.9547 21.45 72.2047 21.91C72.4647 22.36 72.5947 22.91 72.5947 23.56V28H71.2147V23.665C71.2147 22.985 71.0447 22.485 70.7047 22.165C70.3647 21.845 69.8997 21.685 69.3097 21.685C68.6397 21.685 68.0947 21.91 67.6747 22.36C67.2647 22.8 67.0597 23.445 67.0597 24.295V28H65.6797Z" fill="currentColor"/>
<path d="M77.1335 28C76.6935 28 76.3485 27.875 76.0985 27.625C75.8585 27.375 75.7385 27.035 75.7385 26.605V21.805H73.6235V20.635H75.7385V18.115H77.1185V20.635H79.4135V21.805H77.1185V26.38C77.1185 26.68 77.2635 26.83 77.5535 26.83H79.1285V28H77.1335Z" fill="currentColor"/>
<path d="M80.9733 28V17.5H82.3533V21.745H82.5783C82.6783 21.535 82.8233 21.34 83.0133 21.16C83.2133 20.97 83.4683 20.815 83.7783 20.695C84.0983 20.575 84.4983 20.515 84.9783 20.515C85.5383 20.515 86.0333 20.635 86.4633 20.875C86.9033 21.115 87.2483 21.46 87.4983 21.91C87.7583 22.36 87.8883 22.91 87.8883 23.56V28H86.5083V23.665C86.5083 22.985 86.3383 22.49 85.9983 22.18C85.6583 21.86 85.1933 21.7 84.6033 21.7C83.9333 21.7 83.3883 21.92 82.9683 22.36C82.5583 22.8 82.3533 23.445 82.3533 24.295V28H80.9733Z" fill="currentColor"/>
<path d="M93.2621 28.21C92.5221 28.21 91.8721 28.055 91.3121 27.745C90.7521 27.425 90.3121 26.98 89.9921 26.41C89.6821 25.84 89.5271 25.175 89.5271 24.415V24.235C89.5271 23.465 89.6821 22.795 89.9921 22.225C90.3021 21.655 90.7322 21.215 91.2822 20.905C91.8422 20.585 92.4821 20.425 93.2021 20.425C93.9021 20.425 94.5171 20.58 95.0471 20.89C95.5871 21.19 96.0072 21.62 96.3072 22.18C96.6072 22.73 96.7571 23.38 96.7571 24.13V24.685H90.9221C90.9521 25.405 91.1872 25.97 91.6272 26.38C92.0772 26.79 92.6322 26.995 93.2922 26.995C93.9022 26.995 94.3621 26.86 94.6721 26.59C94.9921 26.32 95.2322 26 95.3922 25.63L96.5621 26.2C96.4221 26.5 96.2172 26.805 95.9472 27.115C95.6872 27.425 95.3421 27.685 94.9121 27.895C94.4821 28.105 93.9321 28.21 93.2621 28.21ZM90.9371 23.605H95.3471C95.3071 22.985 95.0921 22.505 94.7021 22.165C94.3121 21.815 93.8071 21.64 93.1871 21.64C92.5671 21.64 92.0572 21.815 91.6572 22.165C91.2672 22.505 91.0271 22.985 90.9371 23.605Z" fill="currentColor"/>
<path d="M101.406 28.21C100.476 28.21 99.7005 28 99.0805 27.58C98.4605 27.16 98.0805 26.51 97.9405 25.63L99.2455 25.33C99.3155 25.77 99.4555 26.12 99.6655 26.38C99.8755 26.63 100.131 26.81 100.431 26.92C100.731 27.03 101.056 27.085 101.406 27.085C101.926 27.085 102.331 26.985 102.621 26.785C102.911 26.575 103.056 26.305 103.056 25.975C103.056 25.635 102.916 25.395 102.636 25.255C102.366 25.105 101.976 24.985 101.466 24.895L100.911 24.79C100.421 24.7 99.9755 24.57 99.5755 24.4C99.1755 24.23 98.8555 24 98.6155 23.71C98.3855 23.41 98.2705 23.035 98.2705 22.585C98.2705 21.905 98.5255 21.375 99.0355 20.995C99.5555 20.615 100.241 20.425 101.091 20.425C101.921 20.425 102.596 20.615 103.116 20.995C103.646 21.365 103.986 21.875 104.136 22.525L102.861 22.885C102.771 22.405 102.566 22.065 102.246 21.865C101.936 21.655 101.551 21.55 101.091 21.55C100.631 21.55 100.271 21.635 100.011 21.805C99.7505 21.975 99.6205 22.22 99.6205 22.54C99.6205 22.86 99.7455 23.095 99.9955 23.245C100.246 23.395 100.586 23.51 101.016 23.59L101.586 23.695C102.116 23.775 102.591 23.895 103.011 24.055C103.441 24.215 103.781 24.445 104.031 24.745C104.281 25.035 104.406 25.425 104.406 25.915C104.406 26.645 104.131 27.21 103.581 27.61C103.041 28.01 102.316 28.21 101.406 28.21Z" fill="currentColor"/>
<path d="M106.001 28V20.635H107.381V28H106.001ZM106.691 19.57C106.421 19.57 106.186 19.48 105.986 19.3C105.796 19.11 105.701 18.87 105.701 18.58C105.701 18.29 105.796 18.055 105.986 17.875C106.186 17.695 106.421 17.605 106.691 17.605C106.981 17.605 107.216 17.695 107.396 17.875C107.586 18.055 107.681 18.29 107.681 18.58C107.681 18.87 107.586 19.11 107.396 19.3C107.216 19.48 106.981 19.57 106.691 19.57Z" fill="currentColor"/>
<path d="M112.466 28.21C111.536 28.21 110.761 28 110.141 27.58C109.521 27.16 109.141 26.51 109.001 25.63L110.306 25.33C110.376 25.77 110.516 26.12 110.726 26.38C110.936 26.63 111.191 26.81 111.491 26.92C111.791 27.03 112.116 27.085 112.466 27.085C112.986 27.085 113.391 26.985 113.681 26.785C113.971 26.575 114.116 26.305 114.116 25.975C114.116 25.635 113.976 25.395 113.696 25.255C113.426 25.105 113.036 24.985 112.526 24.895L111.971 24.79C111.481 24.7 111.036 24.57 110.636 24.4C110.236 24.23 109.916 24 109.676 23.71C109.446 23.41 109.331 23.035 109.331 22.585C109.331 21.905 109.586 21.375 110.096 20.995C110.616 20.615 111.301 20.425 112.151 20.425C112.981 20.425 113.656 20.615 114.176 20.995C114.706 21.365 115.046 21.875 115.196 22.525L113.921 22.885C113.831 22.405 113.626 22.065 113.306 21.865C112.996 21.655 112.611 21.55 112.151 21.55C111.691 21.55 111.331 21.635 111.071 21.805C110.811 21.975 110.681 22.22 110.681 22.54C110.681 22.86 110.806 23.095 111.056 23.245C111.306 23.395 111.646 23.51 112.076 23.59L112.646 23.695C113.176 23.775 113.651 23.895 114.071 24.055C114.501 24.215 114.841 24.445 115.091 24.745C115.341 25.035 115.466 25.425 115.466 25.915C115.466 26.645 115.191 27.21 114.641 27.61C114.101 28.01 113.376 28.21 112.466 28.21Z" fill="currentColor"/>
<path d="M116.566 21.205V20.305H117.811L118.861 20.455L118.936 20.275L118.081 19.645L117.211 18.76L117.826 18.145L118.711 19.015L119.341 19.87L119.521 19.795L119.371 18.745V17.5H120.271V18.745L120.121 19.795L120.286 19.87L120.916 19.015L121.801 18.145L122.431 18.76L121.546 19.645L120.691 20.275L120.766 20.455L121.816 20.305H123.076V21.205H121.816L120.766 21.055L120.691 21.22L121.546 21.85L122.431 22.735L121.801 23.365L120.916 22.48L120.286 21.625L120.121 21.7L120.271 22.75V23.995H119.371V22.75L119.521 21.7L119.341 21.625L118.711 22.48L117.826 23.365L117.211 22.735L118.081 21.85L118.936 21.22L118.861 21.055L117.811 21.205H116.566Z" fill="currentColor"/>
</svg>
